<svg id="logosandtypes_com" xmlns="http://www.w3.org/2000/svg" viewBox="0 0 150 150"><style>.st2{fill-rule:evenodd;clip-rule:evenodd;fill:#00722e}</style><g id="Layer_3_2_"><g id="Layer_3_1_"><path id="Layer_3" d="M0 0h150v150H0V0z" fill="none"/></g></g><g id="hidalgo"><path fill-rule="evenodd" clip-rule="evenodd" fill="#6ac11e" d="M93.8 56.8l3.2-21h21.5L108.1 104l22.3-3.7 13-85.4H57.2l-7 20.9h25.3l-3.2 21z"/><path class="st2" d="M54 35.8L43.3 38l1.6-12.7 12.3-10.4zM105.4 100.3h25L117 111.4h-10z"/><path fill-rule="evenodd" clip-rule="evenodd" fill="#ff3447" d="M54 35.8H32.7l-17.2 89 89.9-3 3.3-21.5H87.1L90.4 79H68.9l-3.3 21.3H44.1z"/><path fill-rule="evenodd" clip-rule="evenodd" fill="#bd1622" d="M19 121.8l13.7-86-12.6 10.8-13.2 86.2h85l13.5-11z"/></g></svg>